<svg id="Capa_1" enable-background="new 0 0 510 510" height="512" viewBox="0 0 510 510" width="512" xmlns="http://www.w3.org/2000/svg" xmlns:xlink="http://www.w3.org/1999/xlink"><linearGradient id="SVGID_1_" gradientUnits="userSpaceOnUse" x1="110.591" x2="190.087" y1="100.298" y2="239.792"><stop offset="0" stop-color="#fec165"/><stop offset="1" stop-color="#c86d36"/></linearGradient><linearGradient id="SVGID_2_" gradientUnits="userSpaceOnUse" x1="246.368" x2="246.368" y1="94.667" y2="160.122"><stop offset="0" stop-color="#c86d36" stop-opacity="0"/><stop offset="1" stop-color="#9e5528"/></linearGradient><linearGradient id="lg1"><stop offset="0" stop-color="#fd3581"/><stop offset="1" stop-color="#972437"/></linearGradient><linearGradient id="SVGID_3_" gradientTransform="matrix(.861 -.508 .508 .861 1119.39 193.738)" gradientUnits="userSpaceOnUse" x1="-873.86" x2="-800.508" xlink:href="#lg1" y1="-593.584" y2="-520.232"/><linearGradient id="lg2"><stop offset="0" stop-color="#972437" stop-opacity="0"/><stop offset="1" stop-color="#42210b"/></linearGradient><linearGradient id="SVGID_4_" gradientTransform="matrix(.861 -.508 .508 .861 1119.39 193.738)" gradientUnits="userSpaceOnUse" x1="-847.73" x2="-847.73" xlink:href="#lg2" y1="-525.521" y2="-489.865"/><linearGradient id="SVGID_5_" gradientTransform="matrix(.861 -.508 .508 .861 1119.39 193.738)" gradientUnits="userSpaceOnUse" x1="-874.551" x2="-829.041" xlink:href="#lg2" y1="-596.556" y2="-626.105"/><linearGradient id="SVGID_6_" gradientTransform="matrix(.95 .312 -.312 .95 -564.414 -383.47)" gradientUnits="userSpaceOnUse" x1="1057.147" x2="1133.201" xlink:href="#lg1" y1="170.418" y2="246.472"/><linearGradient id="SVGID_7_" gradientTransform="matrix(.95 .312 -.312 .95 -564.414 -383.47)" gradientUnits="userSpaceOnUse" x1="1084.239" x2="1084.239" xlink:href="#lg2" y1="240.988" y2="277.957"/><linearGradient id="SVGID_8_" gradientTransform="matrix(.95 .312 -.312 .95 -564.414 -383.47)" gradientUnits="userSpaceOnUse" x1="1056.431" x2="1103.617" xlink:href="#lg2" y1="167.337" y2="136.699"/><linearGradient id="SVGID_9_" gradientUnits="userSpaceOnUse" x1="200.84" x2="352.879" xlink:href="#lg1" y1="170.631" y2="322.669"/><linearGradient id="SVGID_10_" gradientUnits="userSpaceOnUse" x1="255" x2="255" xlink:href="#lg2" y1="273" y2="376.097"/><linearGradient id="SVGID_11_" gradientUnits="userSpaceOnUse" x1="199.409" x2="293.738" xlink:href="#lg2" y1="164.471" y2="103.224"/><linearGradient id="lg3"><stop offset="0" stop-color="#fee45a"/><stop offset="1" stop-color="#fe9738"/></linearGradient><linearGradient id="SVGID_12_" gradientUnits="userSpaceOnUse" x1="160.826" x2="415.808" xlink:href="#lg3" y1="259.518" y2="514.499"/><linearGradient id="lg4"><stop offset="0" stop-color="#fe7701" stop-opacity="0"/><stop offset=".1854" stop-color="#f87204" stop-opacity=".185"/><stop offset=".4314" stop-color="#e7630c" stop-opacity=".431"/><stop offset=".7114" stop-color="#cb4b19" stop-opacity=".711"/><stop offset="1" stop-color="#a72b2b"/></linearGradient><linearGradient id="SVGID_13_" gradientUnits="userSpaceOnUse" x1="255" x2="255" xlink:href="#lg4" y1="409.706" y2="572.074"/><linearGradient id="SVGID_14_" gradientUnits="userSpaceOnUse" x1="162.69" x2="315.231" xlink:href="#lg3" y1="411.568" y2="564.109"/><linearGradient id="SVGID_15_" gradientUnits="userSpaceOnUse" x1="255" x2="255" xlink:href="#lg4" y1="447.988" y2="523.358"/><g><path d="m456.602 203.125c.001-.001.003-.002.004-.004l-184.492-195.734c-9.284-9.849-24.944-9.849-34.228 0l-184.492 195.734c.001.001.003.002.004.004-3.348 3.431-5.418 8.114-5.418 13.286v274.555c0 10.512 8.522 19.034 19.034 19.034h375.971c10.512 0 19.034-8.522 19.034-19.034v-274.555c.001-5.172-2.069-9.855-5.417-13.286z" fill="url(#SVGID_1_)"/><path d="m272.114 7.387c-9.284-9.849-24.944-9.849-34.228 0l-100.263 106.373v68.741h217.489v-87.058z" fill="url(#SVGID_2_)"/><g><g><path d="m144.492 209.663c-2.579 1.522-5.523 2.435-8.513 2.642-9.035.625-27.075 1.177-46.364-2.154-25.093-4.333-43.992-13.724-56.172-27.914-9.462-11.023-13.748-25.445-11.76-39.57 1.842-13.081 8.822-24.209 19.656-31.335.637-.419 1.292-.827 1.946-1.213 10.451-6.166 22.693-7.96 34.472-5.051 2.128.526 4.198 1.194 6.198 1.997.264-2.14.68-4.275 1.249-6.391 3.148-11.717 10.638-21.565 21.09-27.732.654-.386 1.328-.762 2.003-1.117 11.476-6.038 24.592-6.768 36.933-2.054 13.325 5.089 23.877 15.815 28.95 29.427 6.531 17.522 5.613 38.607-2.727 62.666-6.411 18.494-15.616 34.017-20.533 41.625-1.626 2.517-3.849 4.652-6.428 6.174z" fill="url(#SVGID_3_)"/><path d="m39.141 188.078c12.073 10.951 29.004 18.366 50.475 22.073 19.289 3.331 37.328 2.779 46.364 2.154 2.99-.207 5.934-1.12 8.513-2.642s4.802-3.657 6.429-6.174c4.917-7.607 14.122-23.131 20.533-41.625 7.136-20.586 8.833-38.992 5.084-54.855z" fill="url(#SVGID_4_)"/><path d="m77.758 105.068c-11.779-2.909-24.021-1.116-34.472 5.051-.654.386-1.309.794-1.946 1.213-10.834 7.125-17.815 18.254-19.656 31.335-1.988 14.125 2.298 28.547 11.76 39.57 6.721 7.83 15.492 14.195 26.216 19.059l24.296-94.231c-2-.803-4.07-1.471-6.198-1.997z" fill="url(#SVGID_5_)"/></g><g><path d="m376.068 227.356c-2.949-.97-5.674-2.64-7.879-4.829-6.664-6.616-19.427-20.3-30.018-37.613-13.778-22.522-19.378-43.675-16.645-62.87 2.123-14.912 10.435-28.113 22.805-36.22 11.456-7.508 24.903-9.674 37.864-6.101.762.21 1.528.442 2.276.688 11.952 3.931 21.72 12.247 27.504 23.418 1.045 2.018 1.939 4.088 2.68 6.197 1.849-1.257 3.797-2.393 5.836-3.396 11.286-5.556 24.083-6.451 36.036-2.52.748.246 1.502.515 2.24.798 12.552 4.817 22.088 14.543 26.852 27.385 5.143 13.866 3.996 29.424-3.146 42.685-9.194 17.07-26.256 30.77-50.712 40.718-18.799 7.647-37.193 11.084-46.484 12.453-3.075.45-6.259.177-9.209-.793z" fill="url(#SVGID_6_)"/><path d="m320.868 130.477c-.283 16.898 5.513 35.165 17.302 54.436 10.591 17.313 23.354 30.997 30.018 37.613 2.205 2.189 4.93 3.859 7.879 4.829s6.133 1.243 9.208.79c9.291-1.369 27.685-4.806 46.484-12.453 20.926-8.512 36.433-19.773 46.235-33.54z" fill="url(#SVGID_7_)"/><path d="m411.975 103.828c-5.785-11.171-15.553-19.487-27.504-23.418-.748-.246-1.514-.478-2.276-.688-12.961-3.574-26.408-1.407-37.864 6.101-12.37 8.107-20.682 21.308-22.805 36.22-1.508 10.592-.473 21.781 3.067 33.466l90.064-45.484c-.743-2.109-1.637-4.179-2.682-6.197z" fill="url(#SVGID_8_)"/></g></g><g><path d="m255 402.54c-6.207 0-12.424-1.47-17.98-4.25-16.788-8.401-49.572-26.417-80.497-52.68-40.23-34.165-64.076-70.837-70.875-108.997-5.281-29.644 2.259-59.905 20.686-83.026 17.066-21.412 41.249-33.925 68.094-35.233 1.578-.077 3.178-.116 4.753-.116 25.152 0 48.895 9.693 66.857 27.293 3.244 3.179 6.236 6.553 8.96 10.094 2.726-3.541 5.717-6.915 8.961-10.094 17.961-17.6 41.706-27.292 66.858-27.292 1.575 0 3.174.039 4.752.116 26.846 1.308 51.029 13.821 68.095 35.235 18.427 23.12 25.966 53.382 20.684 83.025-6.798 38.159-30.643 74.831-70.874 108.996-30.924 26.262-63.707 44.278-80.497 52.68-5.553 2.78-11.77 4.249-17.977 4.249z" fill="url(#SVGID_9_)"/><path d="m89.668 253.041c10.017 32.266 32.432 63.336 66.855 92.569 30.925 26.263 63.709 44.279 80.497 52.68 5.555 2.78 11.773 4.25 17.979 4.25 6.207 0 12.424-1.469 17.98-4.25 16.79-8.402 49.573-26.418 80.497-52.68 34.423-29.233 56.839-60.303 66.855-92.569z" fill="url(#SVGID_10_)"/><path d="m246.039 145.532c-17.962-17.6-41.706-27.293-66.857-27.293-1.575 0-3.174.039-4.753.116-26.846 1.308-51.028 13.821-68.094 35.233-18.427 23.121-25.967 53.382-20.686 83.026 3.752 21.056 12.704 41.658 26.725 61.637l142.625-142.625c-2.724-3.542-5.716-6.915-8.96-10.094z" fill="url(#SVGID_11_)"/></g><g><g><g><path d="m462.02 216.41v274.56c0 10.51-8.52 19.03-19.03 19.03h-375.98c-10.51 0-19.03-8.52-19.03-19.03v-274.56c0-5.17 2.06-9.86 5.41-13.29l184.5 195.74c9.28 9.84 24.94 9.84 34.22 0l184.5-195.74c3.35 3.43 5.41 8.12 5.41 13.29z" fill="url(#SVGID_12_)"/><path d="m47.98 319.591v171.375c0 10.512 8.522 19.034 19.034 19.034h375.971c10.512 0 19.034-8.522 19.034-19.034v-171.375z" fill="url(#SVGID_13_)"/><path d="m456.606 504.256-166.038-166.794c-19.618-19.707-51.519-19.707-71.137 0l-166.037 166.794c3.457 3.542 8.28 5.744 13.62 5.744h375.971c5.341 0 10.164-2.202 13.621-5.744z" fill="url(#SVGID_14_)"/><path d="m126.503 430.814-73.109 73.443c3.457 3.542 8.28 5.744 13.62 5.744h375.971c5.34 0 10.163-2.202 13.62-5.744l-73.109-73.443z" fill="url(#SVGID_15_)"/></g></g></g></g></svg>