<svg id="Capa_1" enable-background="new 0 0 510 510" height="512" viewBox="0 0 510 510" width="512" xmlns="http://www.w3.org/2000/svg" xmlns:xlink="http://www.w3.org/1999/xlink"><linearGradient id="lg1"><stop offset="0" stop-color="#ffdfcf"/><stop offset="1" stop-color="#ffa78f"/></linearGradient><linearGradient id="SVGID_1_" gradientUnits="userSpaceOnUse" x1="325.106" x2="402.343" xlink:href="#lg1" y1="291.002" y2="413.341"/><linearGradient id="SVGID_2_" gradientUnits="userSpaceOnUse" x1="330.905" x2="343.239" xlink:href="#lg1" y1="346.701" y2="397.367"/><linearGradient id="SVGID_3_" gradientUnits="userSpaceOnUse" x1="376.102" x2="443.36" xlink:href="#lg1" y1="317.339" y2="468.539"/><linearGradient id="SVGID_4_" gradientUnits="userSpaceOnUse" x1="386.741" x2="455.595" xlink:href="#lg1" y1="253.032" y2="253.032"/><linearGradient id="SVGID_5_" gradientUnits="userSpaceOnUse" x1="338.253" x2="406.752" xlink:href="#lg1" y1="223.6" y2="223.6"/><linearGradient id="SVGID_6_" gradientUnits="userSpaceOnUse" x1="293.935" x2="364.445" xlink:href="#lg1" y1="233.038" y2="233.038"/><linearGradient id="SVGID_7_" gradientUnits="userSpaceOnUse" x1="250.661" x2="322.732" xlink:href="#lg1" y1="260.668" y2="260.668"/><linearGradient id="lg2"><stop offset="0" stop-color="#f89580" stop-opacity="0"/><stop offset=".9972" stop-color="#c5715a"/></linearGradient><linearGradient id="SVGID_8_" gradientTransform="matrix(-1 0 0 1 1602.66 0)" gradientUnits="userSpaceOnUse" x1="1247.704" x2="1271.538" xlink:href="#lg2" y1="435.637" y2="515.085"/><linearGradient id="SVGID_9_" gradientUnits="userSpaceOnUse" x1="397.722" x2="319.722" xlink:href="#lg2" y1="329.67" y2="262.67"/><linearGradient id="SVGID_10_" gradientUnits="userSpaceOnUse" x1="106.435" x2="276.435" xlink:href="#lg1" y1="267.635" y2="460.968"/><linearGradient id="SVGID_11_" gradientUnits="userSpaceOnUse" x1="136.492" x2="188.992" xlink:href="#lg1" y1="349.641" y2="432.141"/><linearGradient id="SVGID_12_" gradientUnits="userSpaceOnUse" x1="67.707" x2="129.207" xlink:href="#lg1" y1="332.063" y2="464.563"/><linearGradient id="lg3"><stop offset="0" stop-color="#ffa78f"/><stop offset="1" stop-color="#ffdfcf"/></linearGradient><linearGradient id="SVGID_13_" gradientTransform="matrix(-1 0 0 1 1945.05 0)" gradientUnits="userSpaceOnUse" x1="1821.791" x2="1890.645" xlink:href="#lg3" y1="253.032" y2="253.032"/><linearGradient id="SVGID_14_" gradientTransform="matrix(-1 0 0 1 1945.05 0)" gradientUnits="userSpaceOnUse" x1="1773.302" x2="1841.802" xlink:href="#lg3" y1="223.6" y2="223.6"/><linearGradient id="SVGID_15_" gradientTransform="matrix(-1 0 0 1 1945.05 0)" gradientUnits="userSpaceOnUse" x1="1728.985" x2="1799.495" xlink:href="#lg3" y1="233.038" y2="233.038"/><linearGradient id="SVGID_16_" gradientTransform="matrix(-1 0 0 1 1945.05 0)" gradientUnits="userSpaceOnUse" x1="1685.71" x2="1757.782" xlink:href="#lg3" y1="260.668" y2="260.668"/><linearGradient id="SVGID_17_" gradientUnits="userSpaceOnUse" x1="155.044" x2="178.879" xlink:href="#lg2" y1="435.637" y2="515.085"/><linearGradient id="SVGID_18_" gradientUnits="userSpaceOnUse" x1="312.009" x2="221.342" xlink:href="#lg2" y1="401.149" y2="266.482"/><linearGradient id="SVGID_19_" gradientUnits="userSpaceOnUse" x1="205.822" x2="343.876" y1="132.141" y2="270.195"><stop offset="0" stop-color="#fd3581"/><stop offset="1" stop-color="#972437"/></linearGradient><linearGradient id="lg4"><stop offset="0" stop-color="#97da7b"/><stop offset=".1327" stop-color="#91d67a"/><stop offset=".3049" stop-color="#81cc75"/><stop offset=".4987" stop-color="#66bb6c"/><stop offset=".7084" stop-color="#41a461"/><stop offset=".9286" stop-color="#128653"/><stop offset="1" stop-color="#017b4e"/></linearGradient><linearGradient id="SVGID_20_" gradientUnits="userSpaceOnUse" x1="240.725" x2="285.241" xlink:href="#lg4" y1="32.723" y2="32.723"/><linearGradient id="SVGID_21_" gradientTransform="matrix(.707 -.707 .707 .707 -10686.035 3814.109)" gradientUnits="userSpaceOnUse" x1="10335.94" x2="10380.455" xlink:href="#lg4" y1="5031.557" y2="5031.557"/><linearGradient id="SVGID_22_" gradientTransform="matrix(.707 .707 -.707 .707 -2515.376 -6898.126)" gradientUnits="userSpaceOnUse" x1="6905.461" x2="6949.977" xlink:href="#lg4" y1="2910.819" y2="2910.819"/><g><g><g><g><g><g><g><g><path d="m255 198.002c0-12.777 10.358-23.135 23.135-23.135 12.777 0 23.135 10.358 23.135 23.135v-15.271c0-12.777 10.358-23.135 23.135-23.135 12.777 0 23.135 10.358 23.135 23.135v-18.42c0-12.972 10.616-23.836 23.586-23.588 12.569.24 22.684 10.504 22.684 23.131v18.877c0-12.777 10.358-23.135 23.135-23.135 12.777 0 23.135 10.358 23.135 23.135v223.611c0 17.818-6.514 34.112-17.289 46.637-7.028 8.169-10.841 18.617-10.841 29.394v19.835c0 4.303-3.098 7.793-6.918 7.793h-125.652c-3.82 0-6.918-3.489-6.918-7.793v-34.408c0-8.397-2.318-16.638-6.747-23.772-6.792-10.945-10.715-23.857-10.715-37.685z" fill="url(#SVGID_1_)"/><path d="m334 345c56.885 0 103 27.758 103 62s-46.115 62-103 62c-23.782 0-45.679-4.854-63.113-13.003-1.132-4.2-2.855-8.238-5.171-11.969-6.793-10.945-10.716-23.857-10.716-37.685v-39.122c18.894-13.582 47.269-22.221 79-22.221z" fill="url(#SVGID_2_)"/><path d="m398.853 361.359c11.215 0 21.377 4.484 28.81 11.749l27.97-27.97c13.527-13.527 35.458-13.527 48.985 0 7.175 7.175 7.175 18.807 0 25.982l-81.64 81.64c-13.125 15.385-32.651 25.143-54.459 25.143h-15.519c-19.521 0-35.345-15.825-35.345-35.345.001-44.846 36.354-81.199 81.198-81.199z" fill="url(#SVGID_3_)"/><g><path d="m393.812 182.731v123.75h6.276c22.084 0 39.989 17.905 39.989 39.989v-163.739c0-12.774-10.356-23.136-23.129-23.136-12.781 0-23.136 10.362-23.136 23.136z" fill="url(#SVGID_4_)"/><path d="m347.54 163.855v142.625h46.272v-142.625c0-12.78-10.362-23.136-23.136-23.136-12.781 0-23.136 10.356-23.136 23.136z" fill="url(#SVGID_5_)"/><path d="m301.268 182.731v123.75h46.272v-123.75c0-12.774-10.355-23.136-23.136-23.136-12.774 0-23.136 10.362-23.136 23.136z" fill="url(#SVGID_6_)"/><path d="m255.003 198.003v148.466c0-22.084 17.905-39.989 39.989-39.989h6.276v-108.477c0-12.78-10.356-23.136-23.136-23.136-12.774 0-23.129 10.356-23.129 23.136z" fill="url(#SVGID_7_)"/></g></g><path d="m476.833 399.183-53.881 53.682c-13.154 15.36-32.698 25.082-54.505 25.042l-15.519-.029h-.001l-26.441-.049c-39.521-.073-71.5-32.17-71.427-71.691l.014-7.365z" fill="url(#SVGID_8_)"/></g></g></g></g></g><path d="m504.62 371.119-81.64 81.64c-.04.05-.08.09-.12.14-.02.02-.05.05-.07.08-7.03 8.17-10.84 18.62-10.84 29.39v19.84c0 4.3-3.1 7.79-6.92 7.79h-23.16l-126.87-126.86v-185.14c0-12.77 10.36-23.13 23.13-23.13 12.78 0 23.14 10.36 23.14 23.13v-15.27c0-12.77 10.36-23.13 23.13-23.13 12.78 0 23.14 10.36 23.14 23.13v-18.42c0-12.97 10.62-23.83 23.59-23.59 12.56.24 22.68 10.51 22.68 23.14v18.87c0-6.39 2.59-12.17 6.78-16.35 4.18-4.19 9.97-6.78 16.35-6.78 12.78 0 23.14 10.36 23.14 23.13v177.96l15.55-15.55c13.53-13.53 35.46-13.53 48.99 0 7.17 7.17 7.17 18.81 0 25.98z" fill="url(#SVGID_9_)"/><g><g><g><g><g><g><path d="m255 198.002c0-12.777-10.358-23.135-23.135-23.135-12.777 0-23.135 10.358-23.135 23.135v-15.271c0-12.777-10.358-23.135-23.135-23.135-12.777 0-23.135 10.358-23.135 23.135v-18.42c0-12.972-10.616-23.836-23.586-23.588-12.569.24-22.684 10.504-22.684 23.131v18.877c0-12.777-10.358-23.135-23.135-23.135-12.777 0-23.135 10.358-23.135 23.135v223.611c0 17.818 6.514 34.112 17.289 46.637 7.028 8.169 10.841 18.617 10.841 29.394v19.835c0 4.303 3.098 7.793 6.918 7.793h125.652c3.82 0 6.918-3.489 6.918-7.793v-34.408c0-8.397 2.318-16.638 6.747-23.772 6.792-10.945 10.715-23.857 10.715-37.685z" fill="url(#SVGID_10_)"/><path d="m176 345c-56.885 0-103 27.758-103 62s46.115 62 103 62c23.782 0 45.679-4.854 63.113-13.003 1.132-4.2 2.855-8.238 5.171-11.969 6.793-10.945 10.716-23.857 10.716-37.685v-39.122c-18.894-13.582-47.269-22.221-79-22.221z" fill="url(#SVGID_11_)"/><path d="m111.147 361.359c-11.215 0-21.377 4.484-28.81 11.749l-27.97-27.97c-13.527-13.527-35.458-13.527-48.985 0-7.175 7.175-7.175 18.807 0 25.982l81.64 81.64c13.125 15.385 32.651 25.143 54.459 25.143h15.519c19.521 0 35.345-15.825 35.345-35.345-.001-44.846-36.354-81.199-81.198-81.199z" fill="url(#SVGID_12_)"/><g><path d="m116.188 182.731v123.75h-6.276c-22.084 0-39.989 17.905-39.989 39.989v-163.739c0-12.774 10.356-23.136 23.129-23.136 12.781 0 23.136 10.362 23.136 23.136z" fill="url(#SVGID_13_)"/><path d="m162.46 163.855v142.625h-46.272v-142.625c0-12.78 10.362-23.136 23.136-23.136 12.781 0 23.136 10.356 23.136 23.136z" fill="url(#SVGID_14_)"/><path d="m208.732 182.731v123.75h-46.272v-123.75c0-12.774 10.355-23.136 23.136-23.136 12.774 0 23.136 10.362 23.136 23.136z" fill="url(#SVGID_15_)"/><path d="m254.997 198.003v148.466c0-22.084-17.905-39.989-39.989-39.989h-6.276v-108.477c0-12.78 10.356-23.136 23.136-23.136 12.774 0 23.129 10.356 23.129 23.136z" fill="url(#SVGID_16_)"/></g></g><path d="m33.167 399.183 53.881 53.682c13.154 15.36 32.698 25.082 54.505 25.042l15.519-.029h.001l26.441-.049c39.521-.073 71.5-32.17 71.427-71.691l-.014-7.365z" fill="url(#SVGID_17_)"/></g></g></g></g></g><g><path d="m255 197.999v185.14l-102.94-102.94c-28.55-27.56-45.72-56.76-51.11-86.99-1.93-10.83-1.97-21.75-.24-32.31 9.02 3.16 15.48 11.74 15.48 21.83v-18.87c0-12.63 10.12-22.9 22.68-23.14 12.97-.24 23.59 10.62 23.59 23.59v18.42c0-12.77 10.36-23.13 23.14-23.13 12.77 0 23.13 10.36 23.13 23.13v15.27c0-12.77 10.36-23.13 23.14-23.13 12.77 0 23.13 10.36 23.13 23.13z" fill="url(#SVGID_18_)"/></g></g><path d="m255 342.719c-5.636 0-11.282-1.335-16.326-3.859-15.244-7.629-45.012-23.987-73.093-47.835-36.53-31.022-58.182-64.321-64.356-98.971-4.795-26.917 2.051-54.395 18.783-75.389 15.496-19.443 37.455-30.804 61.831-31.993 1.433-.07 2.886-.105 4.315-.105 22.838 0 44.398 8.801 60.708 24.783 2.946 2.887 5.662 5.95 8.136 9.165 2.475-3.215 5.191-6.279 8.137-9.166 16.309-15.981 37.87-24.782 60.709-24.782 1.43 0 2.882.035 4.315.105 24.376 1.188 46.335 12.55 61.832 31.994 16.732 20.994 23.578 48.472 18.781 75.388-6.173 34.649-27.825 67.948-64.355 98.971-28.08 23.846-57.848 40.205-73.093 47.835-5.042 2.525-10.688 3.859-16.324 3.859z" fill="url(#SVGID_19_)"/><g><g><g><g><path d="m255 65.384c-8.852 0-16.028-7.176-16.028-16.028v-33.329c0-8.851 7.176-16.027 16.028-16.027 8.852 0 16.028 7.176 16.028 16.028v33.329c0 8.851-7.176 16.027-16.028 16.027z" fill="url(#SVGID_20_)"/></g></g></g><g><g><g><g><path d="m213.698 76.306c-6.259 6.259-16.407 6.259-22.667 0l-23.567-23.567c-6.259-6.259-6.259-16.407 0-22.667 6.259-6.259 16.407-6.259 22.666 0l23.567 23.567c6.261 6.259 6.261 16.408.001 22.667z" fill="url(#SVGID_21_)"/></g></g></g><g><g><g><path d="m296.302 76.306c-6.259-6.259-6.259-16.407 0-22.667l23.567-23.567c6.259-6.259 16.407-6.259 22.667 0 6.259 6.259 6.259 16.407 0 22.666l-23.567 23.567c-6.26 6.26-16.408 6.26-22.667.001z" fill="url(#SVGID_22_)"/></g></g></g></g></g></g></svg>