<svg id="Capa_1" enable-background="new 0 0 510 510" height="512" viewBox="0 0 510 510" width="512" xmlns="http://www.w3.org/2000/svg" xmlns:xlink="http://www.w3.org/1999/xlink"><linearGradient id="lg1"><stop offset="0" stop-color="#ffdfcf"/><stop offset="1" stop-color="#ffa78f"/></linearGradient><linearGradient id="SVGID_1_" gradientUnits="userSpaceOnUse" x1="189.769" x2="327.102" xlink:href="#lg1" y1="116.684" y2="268.017"/><linearGradient id="lg2"><stop offset="0" stop-color="#f89580" stop-opacity="0"/><stop offset=".9972" stop-color="#c5715a"/></linearGradient><linearGradient id="SVGID_2_" gradientTransform="matrix(0 -1 1 0 1227.14 -896.86)" gradientUnits="userSpaceOnUse" x1="-1099.744" x2="-1099.744" xlink:href="#lg2" y1="-842.307" y2="-811.778"/><linearGradient id="SVGID_3_" gradientTransform="matrix(0 1 1 0 1768.377 -1115.275)" gradientUnits="userSpaceOnUse" x1="1329.329" x2="1329.329" y1="-1519.507" y2="-1594.631"><stop offset="0" stop-color="#ffb09e" stop-opacity="0"/><stop offset="1" stop-color="#ec806b"/></linearGradient><linearGradient id="SVGID_4_" gradientUnits="userSpaceOnUse" x1="326.964" x2="287.964" xlink:href="#lg2" y1="213.177" y2="222.177"/><linearGradient id="SVGID_5_" gradientUnits="userSpaceOnUse" x1="191.188" x2="361.188" y1="234.355" y2="465.355"><stop offset="0" stop-color="#fd3581"/><stop offset="1" stop-color="#972437"/></linearGradient><linearGradient id="lg3"><stop offset="0" stop-color="#972437" stop-opacity="0"/><stop offset="1" stop-color="#42210b"/></linearGradient><linearGradient id="SVGID_6_" gradientUnits="userSpaceOnUse" x1="255" x2="255" xlink:href="#lg3" y1="435" y2="510.027"/><linearGradient id="SVGID_7_" gradientUnits="userSpaceOnUse" x1="286.48" x2="238.48" xlink:href="#lg3" y1="302.186" y2="82.186"/><linearGradient id="SVGID_8_" gradientUnits="userSpaceOnUse" x1="380.874" x2="225.794" xlink:href="#lg3" y1="479.126" y2="324.045"/><linearGradient id="SVGID_9_" gradientUnits="userSpaceOnUse" x1="176.903" x2="215.403" xlink:href="#lg3" y1="62.227" y2="85.227"/><linearGradient id="lg4"><stop offset="0" stop-color="#60b7ff"/><stop offset="1" stop-color="#314dc9"/></linearGradient><linearGradient id="SVGID_10_" gradientUnits="userSpaceOnUse" x1="255.18" x2="256.537" xlink:href="#lg4" y1="168.902" y2="202.807"/><linearGradient id="SVGID_11_" gradientUnits="userSpaceOnUse" x1="267.984" x2="332.484" xlink:href="#lg3" y1="77.579" y2="53.079"/><linearGradient id="SVGID_12_" gradientTransform="matrix(-.285 .959 .959 .285 2379.376 -1590.301)" gradientUnits="userSpaceOnUse" x1="2318.442" x2="2370.623" xlink:href="#lg1" y1="-1621.396" y2="-1621.396"/><linearGradient id="SVGID_13_" gradientTransform="matrix(.959 .285 -.285 .959 72.216 -34.479)" gradientUnits="userSpaceOnUse" x1="148.285" x2="148.285" xlink:href="#lg1" y1="85.966" y2="127.303"/><linearGradient id="SVGID_14_" gradientTransform="matrix(-.285 .959 .959 .285 2381.005 -1595.782)" gradientUnits="userSpaceOnUse" x1="2276.628" x2="2328.809" xlink:href="#lg1" y1="-1627.129" y2="-1627.129"/><linearGradient id="SVGID_15_" gradientTransform="matrix(-.285 .959 .959 .285 2377.747 -1584.82)" gradientUnits="userSpaceOnUse" x1="2360.252" x2="2412.434" xlink:href="#lg1" y1="-1615.244" y2="-1615.244"/><linearGradient id="SVGID_16_" gradientUnits="userSpaceOnUse" x1="207.873" x2="331.936" xlink:href="#lg1" y1="108.111" y2="244.821"/><linearGradient id="SVGID_17_" gradientUnits="userSpaceOnUse" x1="312.671" x2="319.171" xlink:href="#lg4" y1="171.189" y2="213.689"/><linearGradient id="lg5"><stop offset="0" stop-color="#fee45a"/><stop offset="1" stop-color="#fe9738"/></linearGradient><linearGradient id="SVGID_18_" gradientUnits="userSpaceOnUse" x1="214.523" x2="313.825" xlink:href="#lg5" y1="312.774" y2="412.077"/><linearGradient id="SVGID_19_" gradientTransform="matrix(-1 0 0 -1 -2682 -8107)" gradientUnits="userSpaceOnUse" x1="-2971.174" x2="-2871.921" xlink:href="#lg5" y1="-8494.426" y2="-8395.173"/><linearGradient id="SVGID_20_" gradientUnits="userSpaceOnUse" x1="225.007" x2="312.107" xlink:href="#lg5" y1="323.259" y2="410.359"/><linearGradient id="SVGID_21_" gradientUnits="userSpaceOnUse" x1="224.08" x2="301.896" y1="329.67" y2="385.485"><stop offset="0" stop-color="#fe9738"/><stop offset="1" stop-color="#f46700"/></linearGradient><linearGradient id="SVGID_22_" gradientUnits="userSpaceOnUse" x1="254.998" x2="254.998" y1="380.139" y2="455.919"><stop offset="0" stop-color="#fe7701" stop-opacity="0"/><stop offset=".209" stop-color="#fa7303" stop-opacity=".209"/><stop offset=".4275" stop-color="#ed6809" stop-opacity=".428"/><stop offset=".6502" stop-color="#d85613" stop-opacity=".65"/><stop offset=".8745" stop-color="#bb3c21" stop-opacity=".875"/><stop offset="1" stop-color="#a72b2b"/></linearGradient><g><g><g><path d="m390.881 122.297h-57.877c-11.75-8.81-26.35-14.03-42.18-14.03h-120.72v211.59h109.31c23.41 0 44.52-9.84 59.43-25.61 6.562-6.94 15.774-10.742 25.325-10.786 1.7.003 7.892.006 26.717.01 10.008.001 18.114-8.111 18.114-18.12v-124.935c0-10.007-8.112-18.119-18.119-18.119zm-26.573 161.16c.008 0 .017-.001.025-.001.412.001.25.001-.025.001z" fill="url(#SVGID_1_)"/><path d="m364.333 283.466c9.988.001 19.157.003 26.552.004 10.009.003 18.115-8.11 18.115-18.119v-124.935c0-10.007-8.112-18.119-18.119-18.119h-26.547v161.169z" fill="url(#SVGID_2_)"/><path d="m170.106 319.849h109.303c45.185 0 81.811-36.626 81.811-81.811v-59.396c0-38.869-31.513-70.382-70.39-70.382h-120.724z" fill="url(#SVGID_3_)"/><path d="m227.621 205.756c0-27.894 9.806-53.492 26.151-73.551h18.012c22.923 0 45.19 7.655 63.268 21.75l26.016 20.286c.09 1.458.151 2.924.151 4.405v59.392c0 40.258-29.079 73.724-67.378 80.54-50.17-13.005-66.22-58.586-66.22-112.822z" fill="url(#SVGID_4_)"/></g></g><g><path d="m452.122 372.28c-7.913-44.417-35.669-87.103-82.496-126.87-10.346-8.786-20.869-16.778-31.078-23.94-25.857-18.139-32.302-53.758-14.588-79.907 6.847-10.108 13.095-18.66 16.714-22.038 5.981-5.583 6.176-12.688.407-18.349l-.055-.054c-3.479-3.402-4.074-8.776-1.447-12.872.322-.503.639-.999.949-1.489 6.092-9.617 6.295-21.851.389-31.583-4.501-7.417-10.892-15.296-19.159-19.151-6.826-3.183-14.929-3.621-22.374-2.935-1.671-8.883-6.772-16.922-14.5-22.129-8.428-5.677-19.156-10.963-29.884-10.963s-21.456 5.286-29.884 10.964c-7.729 5.207-12.829 13.246-14.5 22.128-7.445-.686-15.549-.247-22.374 2.936-8.391 3.913-14.849 11.972-19.36 19.484-5.775 9.616-5.458 21.701.543 31.177.334.528.676 1.063 1.024 1.606 2.617 4.079 1.99 9.44-1.475 12.828l-.055.054c-5.769 5.66-5.574 12.766.407 18.349 3.619 3.377 9.867 11.93 16.714 22.038 17.714 26.15 11.269 61.768-14.588 79.907-10.208 7.161-20.732 15.153-31.077 23.939-46.828 39.768-74.584 82.453-82.497 126.871-6.147 34.505 2.629 69.729 24.078 96.641 19.865 24.923 48.013 39.488 79.261 41.011 1.837.09 185.731.09 187.568 0 31.248-1.523 59.397-16.088 79.262-41.013 21.448-26.912 30.224-62.136 24.075-96.64z" fill="url(#SVGID_5_)"/><path d="m81.955 468.922c19.865 24.923 48.013 39.488 79.261 41.011 1.837.09 185.731.09 187.568 0 31.248-1.523 59.397-16.088 79.262-41.013 16.951-21.268 25.977-47.727 25.987-74.92h-398.066c.01 27.193 9.038 53.653 25.988 74.922z" fill="url(#SVGID_6_)"/><path d="m428.047 468.92c21.449-26.912 30.224-62.136 24.076-96.64-7.913-44.417-35.669-87.103-82.496-126.87-10.346-8.786-20.869-16.778-31.078-23.94-14.268-10.009-22.611-25.343-24.26-41.47h-118.578c-1.649 16.127-9.991 31.461-24.26 41.47-10.208 7.161-20.732 15.153-31.077 23.939-4.883 4.147-9.546 8.327-14.013 12.535l247.727 247.727c20.998-6.192 39.633-18.776 53.959-36.751z" fill="url(#SVGID_7_)"/><path d="m428.047 468.92c13.372-16.778 21.817-36.788 24.792-57.84l-127.836-127.835-140.01 140.01 86.744 86.744c40.243-.005 76.239-.027 77.046-.066 31.249-1.523 59.399-16.088 79.264-41.013z" fill="url(#SVGID_8_)"/><path d="m168.97 101.12c3.47-3.39 4.1-8.75 1.48-12.83-.35-.54-.69-1.07-1.02-1.6-6.01-9.48-6.32-21.56-.55-31.18 4.51-7.51 10.97-15.57 19.36-19.48 6.82-3.19 14.92-3.62 22.36-2.94-.67 3.51-.79 7.15-.32 10.8 2.13 16.63 6.27 39.55 11.83 61.11h-56.08c.69-1.32 1.65-2.6 2.89-3.82z" fill="url(#SVGID_9_)"/><g><path d="m315.908 194.5h-120.408c-6.903 0-12.5-5.597-12.5-12.5s5.597-12.5 12.5-12.5h120.408c6.903 0 12.5 5.597 12.5 12.5s-5.596 12.5-12.5 12.5z" fill="url(#SVGID_10_)"/></g><path d="m299.718 43.893c1.655-12.895-4.051-25.665-14.833-32.929-8.429-5.678-19.157-10.964-29.885-10.964s-21.455 5.286-29.884 10.964c-10.783 7.264-16.488 20.034-14.833 32.929 5.362 41.79 23.351 123.177 44.717 123.177s39.355-81.387 44.718-123.177z" fill="url(#SVGID_11_)"/></g><g><g><g><path d="m129.938 209.362 42.991 12.776c12.582 3.739 25.813-3.43 29.552-16.011 3.739-12.582-3.43-25.813-16.011-29.552l-43.441-12.91c-12.427-3.693-25.495 3.257-29.413 15.561-4.046 12.702 3.544 26.338 16.322 30.136z" fill="url(#SVGID_12_)"/></g><path d="m142.188 89.035c-3.74 12.584 3.434 25.814 16.012 29.552l26.083 7.751 1.837-6.18c6.462-21.746 29.332-34.137 51.078-27.675l-65.46-19.453c-12.578-3.738-25.812 3.427-29.55 16.005z" fill="url(#SVGID_13_)"/><path d="m132.488 160.532 53.982 16.042c12.582 3.739 25.813-3.43 29.552-16.011 3.739-12.582-3.43-25.813-16.012-29.552l-54.432-16.176c-12.427-3.693-25.494 3.256-29.413 15.561-4.045 12.702 3.545 26.339 16.323 30.136z" fill="url(#SVGID_14_)"/><path d="m128.193 258.426 31.198 9.271c12.582 3.739 25.813-3.43 29.552-16.011 3.739-12.582-3.43-25.813-16.012-29.552l-31.648-9.405c-12.427-3.693-25.495 3.257-29.413 15.561-4.045 12.702 3.545 26.338 16.323 30.136z" fill="url(#SVGID_15_)"/></g><path d="m261.45 79.449h-43.445c-21.353 0-38.664 17.31-38.664 38.664v84.123c0 8.821 7.031 16.149 15.851 16.262 17.599.225 31.937-13.974 31.937-31.521v-16.749c0-9.785 7.933-17.718 17.718-17.718h26.346c14.792 0 29.281 3.528 42.304 10.185 11.506 5.881 24.37 8.589 37.238 7.407l1.251-.115c0-50.004-40.534-90.538-90.536-90.538z" fill="url(#SVGID_16_)"/></g><path d="m344.092 215.756c-3.199 0-6.398-1.221-8.839-3.661l-17.678-17.678-17.678 17.678c-4.881 4.881-12.797 4.881-17.678 0-4.882-4.882-4.882-12.796 0-17.678l26.517-26.517c4.881-4.881 12.797-4.881 17.678 0l26.517 26.517c4.882 4.882 4.882 12.796 0 17.678-2.441 2.44-5.64 3.661-8.839 3.661z" fill="url(#SVGID_17_)"/><g><circle cx="254.998" cy="353.25" fill="url(#SVGID_18_)" r="99.002"/><circle cx="254.998" cy="353.25" fill="url(#SVGID_19_)" r="79.853"/><circle cx="254.998" cy="353.25" fill="url(#SVGID_20_)" r="70.075"/><path d="m262.886 340.239v-23.745c10.571.813 13.661 6.018 19.028 6.018 7.156 0 10.083-8.945 10.083-13.336 0-11.222-19.028-13.824-29.111-14.149v-4.066c0-2.277-3.09-4.391-6.18-4.391-3.578 0-6.18 2.114-6.18 4.391v4.554c-17.239 2.439-32.527 12.36-32.527 33.015 0 20.817 17.564 27.81 32.527 33.502v26.347c-12.035-2.114-17.565-11.71-24.395-11.71-6.18 0-11.059 8.131-11.059 13.661 0 10.409 15.938 20.492 35.454 21.142v4.066c0 2.277 2.602 4.391 6.18 4.391 3.09 0 6.18-2.114 6.18-4.391v-4.716c19.028-3.09 32.039-15.287 32.039-35.454 0-21.955-17.239-29.599-32.039-35.129zm-10.734-3.903c-6.18-2.602-10.409-5.53-10.409-10.246 0-3.903 3.09-7.644 10.409-9.107zm9.108 51.88v-21.793c5.855 2.765 9.92 6.18 9.92 11.547 0 5.855-4.391 8.945-9.92 10.246z" fill="url(#SVGID_21_)"/><path d="m156.071 356.917c1.93 52.977 45.478 95.335 98.927 95.335s96.997-42.358 98.927-95.335z" fill="url(#SVGID_22_)"/></g></g></svg>