<svg id="Capa_1" enable-background="new 0 0 512 512" height="512" viewBox="0 0 512 512" width="512" xmlns="http://www.w3.org/2000/svg" xmlns:xlink="http://www.w3.org/1999/xlink"><linearGradient id="lg1"><stop offset="0" stop-color="#565d68"/><stop offset="1" stop-color="#838b9b"/></linearGradient><linearGradient id="SVGID_1_" gradientUnits="userSpaceOnUse" x1="214.994" x2="262.033" xlink:href="#lg1" y1="257.753" y2="257.753"/><linearGradient id="SVGID_2_" gradientUnits="userSpaceOnUse" x1="223.819" x2="253.207" xlink:href="#lg1" y1="209.114" y2="209.114"/><linearGradient id="SVGID_3_" gradientTransform="matrix(-1 0 0 1 -507.703 0)" gradientUnits="userSpaceOnUse" x1="-750.786" x2="-728.997" xlink:href="#lg1" y1="221.815" y2="184.075"/><linearGradient id="SVGID_4_" gradientUnits="userSpaceOnUse" x1="216.198" x2="216.198" xlink:href="#lg1" y1="227.898" y2="110.216"/><linearGradient id="SVGID_5_" gradientUnits="userSpaceOnUse" x1="216.198" x2="216.198" xlink:href="#lg1" y1="176.566" y2="243.83"/><linearGradient id="SVGID_6_" gradientUnits="userSpaceOnUse" x1="83.457" x2="112.493" xlink:href="#lg1" y1="72.24" y2="21.948"/><linearGradient id="SVGID_7_" gradientTransform="matrix(-1 0 0 1 226.554 0)" gradientUnits="userSpaceOnUse" x1="107.269" x2="107.269" xlink:href="#lg1" y1="80.347" y2="-76.477"/><linearGradient id="lg2"><stop offset="0" stop-color="#d7d1eb"/><stop offset=".8982" stop-color="#e9e5f6"/></linearGradient><linearGradient id="SVGID_8_" gradientUnits="userSpaceOnUse" x1="133.495" x2="160.032" xlink:href="#lg2" y1="98.027" y2="52.063"/><linearGradient id="SVGID_9_" gradientUnits="userSpaceOnUse" x1="234.395" x2="283.449" xlink:href="#lg2" y1="194.307" y2="109.342"/><linearGradient id="SVGID_10_" gradientUnits="userSpaceOnUse" x1="169.568" x2="217.884" xlink:href="#lg1" y1="154.513" y2="70.828"/><linearGradient id="SVGID_11_" gradientUnits="userSpaceOnUse" x1="317.894" x2="371.633" xlink:href="#lg1" y1="251.257" y2="158.178"/><linearGradient id="SVGID_12_" gradientTransform="matrix(-1 0 0 1 226.554 0)" gradientUnits="userSpaceOnUse" x1="-157.649" x2="-157.649" xlink:href="#lg1" y1="266.26" y2="-23.983"/><linearGradient id="SVGID_13_" gradientUnits="userSpaceOnUse" x1="384.204" x2="384.204" xlink:href="#lg1" y1="172.488" y2="259.714"/><g><g><path d="m135.891 375.707c-3.215 0-6.441-1.137-9.026-3.449-5.575-4.987-6.052-13.549-1.065-19.124l106.205-118.732c4.986-5.576 13.55-6.051 19.124-1.065 5.575 4.987 6.052 13.549 1.065 19.124l-106.205 118.732c-2.674 2.991-6.379 4.514-10.098 4.514z" fill="#565d68"/></g><g><path d="m399.15 375.708c-2.922 0-5.865-.941-8.343-2.883l-141.345-110.728c-5.888-4.613-6.923-13.126-2.309-19.014 4.615-5.888 13.126-6.922 19.014-2.309l141.345 110.728c5.888 4.613 6.923 13.126 2.309 19.014-2.672 3.41-6.651 5.192-10.671 5.192z" fill="#565d68"/></g><g><g><path d="m262.026 266.467v-33.274l-47.028 4.086v33.122c-.116 3.219 1.767 6.308 5.734 8.598 8.504 4.91 23.358 4.294 33.177-1.375 5.525-3.189 8.279-7.299 8.117-11.157z" fill="url(#SVGID_1_)"/><path d="m253.91 244.726c9.819-5.669 10.886-14.245 2.382-19.155s-23.358-4.294-33.177 1.375-10.886 14.245-2.382 19.155 23.358 4.294 33.177-1.375z" fill="#9ca2af"/></g><g><path d="m253.203 233.531v-58.735l-29.38 2.553v58.639c-.072 2.011 1.104 3.941 3.582 5.372 5.313 3.067 14.593 2.683 20.727-.859 3.451-1.992 5.171-4.559 5.071-6.97z" fill="url(#SVGID_2_)"/></g></g><g><path d="m163.096 512c-1.215 0-2.451-.165-3.68-.511-7.199-2.028-11.392-9.509-9.363-16.709l64.686-229.625c2.026-7.199 9.503-11.393 16.709-9.364 7.199 2.028 11.392 9.509 9.363 16.709l-64.686 229.625c-1.681 5.972-7.115 9.875-13.029 9.875z" fill="#565d68"/></g><g><path d="m202.65 175.526 10.917-6.433.001.002c3.574-2.183 8.285-2.045 13.449.936 11.17 6.449 20.224 23.749 20.224 38.642 0 8.04-2.64 13.733-6.826 16.256l.001.002-.072.041c-.061.036-.122.072-.184.106l-10.485 6.175z" fill="url(#SVGID_3_)"/><path d="m195.973 191.693c0-14.893 9.055-21.738 20.224-15.289 11.17 6.449 20.224 23.749 20.224 38.642s-9.055 21.738-20.224 15.289-20.224-23.75-20.224-38.642z" fill="url(#SVGID_4_)"/><path d="m205.678 197.295c0-7.747 4.71-11.307 10.52-7.953s10.52 12.354 10.52 20.1c0 7.747-4.71 11.307-10.52 7.953-5.811-3.354-10.52-12.353-10.52-20.1z" fill="url(#SVGID_5_)"/></g><g><g><path d="m137.339 10.556-14.548-8.573-.001.002c-4.763-2.909-11.041-2.726-17.922 1.248-14.885 8.594-26.951 31.649-26.951 51.495 0 10.714 3.518 18.3 9.097 21.663l-.001.002.096.055c.081.048.163.095.245.142l13.972 8.229z" fill="url(#SVGID_6_)"/><path d="m146.237 32.099c0-19.846-12.066-28.968-26.951-20.374s-26.951 31.649-26.951 51.495 12.066 28.968 26.951 20.375c14.884-8.594 26.951-31.649 26.951-51.496z" fill="url(#SVGID_7_)"/></g><path d="m207.158 56.937-62.806-37.608-.001.002c-4.293-2.623-9.952-2.457-16.156 1.125-13.418 7.746-24.295 28.529-24.295 46.419 0 9.658 3.171 16.496 8.2 19.528l-.001.002.086.05c.073.043.147.086.221.128l62.287 37.299z" fill="url(#SVGID_8_)"/><path d="m390.894 130.514-157.003-93.558-.002.003c-7.915-4.835-18.348-4.53-29.785 2.073-24.736 14.281-44.789 52.596-44.789 85.578 0 17.805 5.847 30.413 15.117 36.001l-.002.003.159.092c.135.08.271.158.407.236l156.045 92.987z" fill="url(#SVGID_9_)"/><path d="m186.6 141.042c0-32.982 20.052-71.296 44.789-85.577 11.436-6.603 21.869-6.909 29.785-2.074l.002-.003-27.286-16.429c-7.915-4.835-18.347-4.53-29.784 2.073-24.736 14.282-44.789 52.596-44.789 85.578 0 17.805 5.847 30.412 15.118 36.001l-.002.003.159.092c.135.08.271.158.407.235l25.391 15.131c-8.474-5.972-13.79-18.116-13.79-35.03z" fill="url(#SVGID_10_)"/><path d="m417.617 137.094-26.926-15.866-.002.004c-8.815-5.385-20.434-5.044-33.17 2.309-27.548 15.905-49.88 58.574-49.88 95.305 0 19.829 6.511 33.869 16.836 40.093l-.002.004.177.102c.15.089.302.176.454.262l25.859 15.23z" fill="url(#SVGID_11_)"/><path d="m434.083 176.966c0-36.73-22.332-53.613-49.88-37.708s-49.88 58.574-49.88 95.304c0 36.731 22.332 53.613 49.88 37.708 27.549-15.904 49.88-58.573 49.88-95.304z" fill="url(#SVGID_12_)"/><path d="m421.656 184.141c0-27.579-16.768-40.255-37.452-28.313s-37.452 43.981-37.452 71.56 16.768 40.255 37.452 28.313c20.684-11.943 37.452-43.981 37.452-71.56z" fill="url(#SVGID_13_)"/><path d="m384.204 155.828c-20.685 11.942-37.453 43.981-37.453 71.56 0 8.827 1.733 16.105 4.747 21.56 4.23-.234 8.82-1.627 13.637-4.409 20.685-11.943 37.453-43.981 37.453-71.56 0-8.827-1.733-16.105-4.747-21.56-4.23.234-8.82 1.627-13.637 4.409z" fill="#fff"/></g></g></svg>