<svg id="Capa_1" enable-background="new 0 0 512 512" height="512" viewBox="0 0 512 512" width="512" xmlns="http://www.w3.org/2000/svg" xmlns:xlink="http://www.w3.org/1999/xlink"><linearGradient id="SVGID_1_" gradientUnits="userSpaceOnUse" x1="175.614" x2="317.889" y1="356.901" y2="356.901"><stop offset="0" stop-color="#ab2c37"/><stop offset="1" stop-color="#ff4757"/></linearGradient><linearGradient id="lg1"><stop offset="0" stop-color="#dfdaef"/><stop offset="1" stop-color="#fff"/></linearGradient><linearGradient id="SVGID_2_" gradientUnits="userSpaceOnUse" x1="144.769" x2="246.964" xlink:href="#lg1" y1="344.418" y2="344.418"/><linearGradient id="lg2"><stop offset="0" stop-color="#252336"/><stop offset="1" stop-color="#43386b"/></linearGradient><linearGradient id="SVGID_3_" gradientUnits="userSpaceOnUse" x1="144.769" x2="246.964" xlink:href="#lg2" y1="346.149" y2="346.149"/><linearGradient id="SVGID_4_" gradientUnits="userSpaceOnUse" x1="146.875" x2="350.423" y1="208.233" y2="208.233"><stop offset="0" stop-color="#ff4757"/><stop offset="1" stop-color="#ff7a85"/></linearGradient><linearGradient id="SVGID_5_" gradientUnits="userSpaceOnUse" x1="268.378" x2="268.378" y1="153.028" y2="121.613"><stop offset="0" stop-color="#dfdaef"/><stop offset="1" stop-color="#e9e5f6"/></linearGradient><linearGradient id="SVGID_6_" gradientUnits="userSpaceOnUse" x1="181.041" x2="181.119" xlink:href="#lg2" y1="14.721" y2="14.582"/><linearGradient id="SVGID_7_" gradientUnits="userSpaceOnUse" x1="248.865" x2="242.423" xlink:href="#lg2" y1="61.83" y2="50.673"/><linearGradient id="SVGID_8_" gradientUnits="userSpaceOnUse" x1="277.976" x2="277.976" xlink:href="#lg2" y1="127.349" y2="127.349"/><linearGradient id="SVGID_9_" gradientTransform="matrix(-1 0 0 1 516.818 0)" gradientUnits="userSpaceOnUse" x1="229.989" x2="236.271" xlink:href="#lg2" y1="108.752" y2="97.871"/><linearGradient id="SVGID_10_" gradientUnits="userSpaceOnUse" x1="207.806" x2="189.292" y1="129.659" y2="97.592"><stop offset="0" stop-color="#fff"/><stop offset="1" stop-color="#fff" stop-opacity="0"/></linearGradient><linearGradient id="SVGID_11_" gradientUnits="userSpaceOnUse" x1="317.89" x2="348.459" xlink:href="#lg2" y1="403.687" y2="403.687"/><linearGradient id="SVGID_12_" gradientUnits="userSpaceOnUse" x1="326.503" x2="343.511" xlink:href="#lg1" y1="350.977" y2="350.977"/><g><path d="m350.344 201.808-203.469 14.057v48.113l4.959 44.19-4.959 5.966v149.085l.05-.004c.606 12.924 8.762 25.19 24.792 34.444 36.796 21.245 101.069 18.58 143.558-5.951 21.852-12.616 33.603-28.553 34.938-43.955l.21-.016v-245.935z" fill="url(#SVGID_1_)"/><path d="m315.275 292.466c-42.489 24.531-106.762 27.194-143.558 5.951-23.06-13.313-24.842-34.44-24.842-34.44v127.582l.05-.004c.606 12.923 8.762 25.19 24.792 34.444 36.796 21.244 101.069 18.58 143.558-5.951 21.852-12.617 33.603-28.554 34.938-43.955l.21-.016v-127.581l-.21.016c-1.335 15.401-13.086 31.338-34.938 43.954z" fill="url(#SVGID_2_)"/><path d="m315.275 342.622c-42.489 24.531-106.763 27.195-143.558 5.951-16.03-9.254-24.186-21.521-24.792-34.444l-.05.004v30.733l.05-.004c.606 12.923 8.762 25.19 24.792 34.444 36.796 21.245 101.069 18.58 143.558-5.951 21.852-12.617 33.603-28.554 34.938-43.955l.21-.016v-30.733l-.21.016c-1.335 15.401-13.086 31.338-34.938 43.955z" fill="url(#SVGID_3_)"/><path d="m315.274 246.699c-42.489 24.531-106.762 27.195-143.558 5.951-36.796-21.245-32.182-58.352 10.307-82.883s106.762-27.195 143.558-5.951c36.797 21.244 32.182 58.352-10.307 82.883z" fill="url(#SVGID_4_)"/><path d="m289.584 132.121c.121-5.535-3.154-10.837-9.983-14.779-14.805-8.548-40.664-7.476-57.759 2.394-9.855 5.69-14.634 13.061-14.088 19.922v23.994c-.056.712-.056 1.421 0 2.125v.001c.401 5.04 3.671 9.805 9.941 13.425 14.805 8.547 40.664 7.476 57.759-2.394 8.917-5.148 13.678-11.673 14.101-17.952l.041-.004v-26.733z" fill="#ff4757"/><g><path d="m310.803 118.052-51.912-30.022c-3.498-2.229-8.148-2.135-13.252.812-10.871 6.277-19.685 23.115-19.685 37.611 0 7.846 2.586 13.391 6.679 15.837l.056.032c.143.084.283.171.43.248l50.866 29.363z" fill="url(#SVGID_5_)"/><ellipse cx="297.707" cy="145.201" fill="#d7d1eb" rx="30.219" ry="17.096" transform="matrix(.392 -.92 .92 .392 47.532 362.285)"/></g><g><path d="m181.306 14.347.017.016c-.356.246-.673.548-.946.888l1.392-1.172c-.105.055-.204.113-.304.176z" fill="url(#SVGID_6_)"/><g><path d="m278.735 79.555v-30.582c0-5.158-2.752-9.924-7.218-12.502l-62.175-35.897c-1.581-.912-3.36-.67-4.658.26l-.024-.016-22.891 13.261 50.982 49.596 45.226 63.674z" fill="url(#SVGID_7_)"/><path d="" fill="url(#SVGID_8_)"/></g></g><path d="m277.976 127.349v-16.693c0-2.75-1.467-5.292-3.849-6.667l-18.812-10.861v-30.582c0-5.158-2.752-9.924-7.218-12.503l-62.175-35.897c-2.876-1.661-6.472.415-6.472 3.736v10.068l53.093 40.929v32.238z" fill="#373451"/><path d="m277.976 127.349v-16.693c0-2.751-1.467-5.292-3.849-6.667l-18.812-10.861 23.42-13.573 18.812 10.861c2.382 1.375 3.849 3.916 3.849 6.667v16.693z" fill="url(#SVGID_9_)"/><g><path d="m232.514 71.401c-9.083-5.244-17.357-5.411-23.582-1.444l-23.922 13.909 47.721 95.877 22.061-12.737c.26-.136.51-.292.764-.441l.1-.058c7.284-4.353 11.885-14.219 11.885-28.181 0-25.792-15.682-55.756-35.027-66.925z" fill="#252336"/><g transform="matrix(.92 -.392 .392 .92 -35.122 92.119)"><ellipse cx="208.314" cy="132.177" fill="#373451" rx="30.421" ry="53.773"/><ellipse cx="208.314" cy="132.177" fill="#ff4757" rx="23.308" ry="41.198"/><ellipse cx="208.314" cy="132.177" fill="#fff" rx="16.67" ry="29.467"/></g><path d="m208.314 132.177 14.896-7.528c-3.519-7.804-8.882-14.593-14.896-18.065-5.355-3.092-10.194-2.955-13.675-.248z" fill="#06daae"/><path d="m207.505 107.281-1.377 24.329c-.061 1.082.362 2.393 1.09 3.373.678.914 1.514 1.396 2.192 1.266.728-.14 1.151-.962 1.09-2.115l-1.377-25.919c-.074-1.379-1.545-2.228-1.618-.934z" fill="#f7e041"/><path d="m208.314 96.396c-14.821-8.557-26.836.526-26.836 20.288 0 5.981 1.115 12.252 3.061 18.331l46.676-8.196c-4.711-13.021-13.191-24.817-22.901-30.423z" fill="url(#SVGID_10_)" opacity=".5"/></g><path d="m364.855 431.531-7.851-75.969c.002-.536-.044-1.068-.164-1.592l-43.029 4.529-.012.001-7.867 77.915c-.141.614-.23 1.228-.258 1.838-.185 4.102 2.193 8.043 7.246 10.96 10.75 6.206 29.527 5.428 41.94-1.738 6.964-4.021 10.444-9.198 10.26-14.065-.025-.633-.117-1.26-.265-1.879z" fill="url(#SVGID_11_)"/><ellipse cx="335.394" cy="357.323" fill="#594a8e" rx="21.737" ry="12.297" transform="matrix(.993 -.121 .121 .993 -40.766 43.201)"/><path d="m350.423 183.223c0-15.394-8.212-29.618-21.544-37.314l-24.11-13.92c-1.782-1.358-4.248-1.413-6.973.161-5.434 3.137-9.839 11.554-9.839 18.8 0 3.887 1.275 6.631 3.289 7.871l-.006.011.261.151c.017.009.033.02.05.029l22.324 12.889c4.045 2.335 6.537 6.652 6.537 11.323v173.94l.037-.003c-.175 2.132 1.005 4.192 3.625 5.704 5.414 3.126 14.842 2.681 21.124-.876.604-.342 1.143-.728 1.621-1.137 2.39-2.043 3.603-5.149 3.603-8.293v-169.336z" fill="#252336"/><path d="m346.819 345.29c-.479.409-1.017.795-1.621 1.137-6.282 3.557-15.71 4.002-21.124.876-2.62-1.513-3.8-3.573-3.625-5.704l-.037.003v15.561l.037-.003c-.175 2.132 1.005 4.192 3.625 5.704 5.414 3.126 14.842 2.681 21.124-.876.604-.342 1.143-.728 1.621-1.137 2.39-2.043 3.603-5.149 3.603-8.293v-15.561c.001 3.144-1.213 6.25-3.603 8.293z" fill="url(#SVGID_12_)"/></g></svg>