<svg id="Capa_1" enable-background="new 0 0 512 512" height="512" viewBox="0 0 512 512" width="512" xmlns="http://www.w3.org/2000/svg" xmlns:xlink="http://www.w3.org/1999/xlink"><linearGradient id="lg1"><stop offset="0" stop-color="#ba5c25"/><stop offset="1" stop-color="#cc8241"/></linearGradient><linearGradient id="SVGID_1_" gradientUnits="userSpaceOnUse" x1="132.876" x2="178.9" xlink:href="#lg1" y1="324.646" y2="324.678"/><linearGradient id="SVGID_2_" gradientUnits="userSpaceOnUse" x1="242.956" x2="272.749" y1="211.641" y2="162.996"><stop offset="0" stop-color="#236568"/><stop offset="1" stop-color="#2f878a"/></linearGradient><linearGradient id="SVGID_3_" gradientUnits="userSpaceOnUse" x1="354.379" x2="376.161" y1="312.684" y2="274.955"><stop offset="0" stop-color="#ba5c25"/><stop offset=".3427" stop-color="#cc8241"/><stop offset="1" stop-color="#dea861"/></linearGradient><linearGradient id="SVGID_4_" gradientUnits="userSpaceOnUse" x1="346.553" x2="403.896" xlink:href="#lg1" y1="276.573" y2="276.573"/><linearGradient id="SVGID_5_" gradientUnits="userSpaceOnUse" x1="374.335" x2="382.904" y1="286.786" y2="271.945"><stop offset="0" stop-color="#3e242e"/><stop offset="1" stop-color="#7c485c"/></linearGradient><linearGradient id="lg2"><stop offset="0" stop-color="#cc8241"/><stop offset="1" stop-color="#ffc538"/></linearGradient><linearGradient id="SVGID_6_" gradientUnits="userSpaceOnUse" x1="187.512" x2="215.581" xlink:href="#lg2" y1="157.298" y2="108.681"/><linearGradient id="SVGID_7_" gradientTransform="matrix(.5 -.866 .866 .5 -82.982 249.839)" gradientUnits="userSpaceOnUse" x1="358.224" x2="161.821" xlink:href="#lg2" y1="160.928" y2="231.763"/><linearGradient id="SVGID_8_" gradientUnits="userSpaceOnUse" x1="227.037" x2="207.398" xlink:href="#lg2" y1="134.879" y2="195.339"/><g><path d="m384.198 170.814c.099.051.204.091.301.146l-15.105-8.824v.001c-5.948-4-11.595.174-11.595.174l-10.707 6.182v-13.091s-.068-1.208-.166-1.743c-.719-4.138-3.933-6.774-7.743-7.963l-13.917-7.003c-3.708-1.812-8.075-1.661-11.649.402l-141.753 81.841-53.624 30.96c-9.01 5.202-10.117 13.968-10.117 17.874v216.655c-.205 7.04 3.175 14.17 10.157 18.18 17.205 9.882 38.369 9.858 55.552-.063l200.84-115.955c.079-.046.15-.123.218-.216 9.128-6.154 14.669-16.472 14.669-27.582v-181.181c-.001-3.99-2.264-7.183-5.361-8.794z" fill="url(#SVGID_1_)"/><path d="m141.056 279.8 16.975-32.434-24.941 14.4c-5.783 3.339-5.783 11.685 0 15.024 3.182 1.837 8.701 3.159 7.966 3.01z" fill="#ba5c25"/><g><path d="m318.534 98.409c5.369 4.059 5.37 15.667 0 25.926s-14.075 15.286-19.445 11.226c-5.369-4.059-5.369-15.667 0-25.926 5.37-10.259 14.076-15.285 19.445-11.226z" fill="#06daae"/><path d="m396.417 77.226-95.72-72.363-7.609-4.25c-2.34-1.769-6.133.421-8.473 4.892l-143.559 274.295c6.223 1.26 12.796.26 18.46-3.01l198.284-114.479 38.618-73.787c2.339-4.471 2.339-9.529-.001-11.298z" fill="url(#SVGID_2_)"/><path d="m396.417 77.226-95.721-72.363c-2.34-1.769-6.133.422-8.473 4.892l-141.401 270.173c3.014-.523 5.96-1.561 8.693-3.138l198.284-114.479 38.618-73.787c2.34-4.471 2.34-9.529 0-11.298z" fill="#06daae"/><path d="m328.449 179.256 42.854-81.882-74.843-56.58-117.698 224.883z" fill="#2f878a"/><path d="m294.37 198.931c2.856-16.431-.051-31.103-8.733-37.667-13.069-9.88-34.258 2.354-47.327 27.325-8.682 16.588-11.584 34.614-8.73 47.749z" fill="#06daae"/></g><path d="m401.912 238.52.002-.003-8.714-5.031-.001.001c-.924-.73-2.213-.772-3.641.052l-34.821 20.109c-1.557.899-3.029 2.699-3.994 4.886l-12.343 27.966c-1.461 3.309-1.461 6.789 0 8.412l12.343 13.712c.169.188.359.335.557.463l-.015.019 9.497 5.483.001-.001c.898.451 2.025.345 3.203-.335l34.821-20.109c2.811-1.623 5.089-5.977 5.089-9.725v-41.677c0-2.186-.779-3.677-1.984-4.222z" fill="url(#SVGID_3_)"/><path d="m363.986 314.254 34.821-20.109c2.811-1.623 5.09-5.977 5.09-9.725v-41.678c0-3.748-2.279-5.471-5.09-3.848l-34.821 20.109c-1.557.899-3.029 2.699-3.994 4.886l-12.343 27.965c-1.461 3.309-1.461 6.789 0 8.412l12.343 13.712c.965 1.074 2.436 1.175 3.994.276z" fill="url(#SVGID_4_)"/><g><path d="m387.315 265.7.001-.002-4.496-2.58-.001.004c-2.265-1.279-5.204-1.147-8.419.709-7.153 4.13-12.952 15.21-12.952 24.748 0 5.21 1.733 8.877 4.469 10.464l-.001.003 4.879 2.781.001-.003c2.268 1.296 5.218 1.171 8.447-.693 7.153-4.13 12.952-15.21 12.952-24.748-.001-5.466-1.907-9.235-4.88-10.683z" fill="url(#SVGID_5_)"/><ellipse cx="379.242" cy="283.861" fill="#5d3645" rx="19.884" ry="11.249" transform="matrix(.392 -.92 .92 .392 -30.447 521.676)"/></g><path d="m369.394 162.136v.001c-2.972-2.033-7.013-2.471-10.577-.414l-199.302 115.067c-8.176 4.72-18.25 4.72-26.426 0-5.783-3.339-5.783-11.686 0-15.024l24.941-14.4 13.832-26.429-53.624 30.96c-13.532 7.813-13.51 27.352.04 35.134 17.205 9.881 38.369 9.857 55.552-.063l200.84-115.955c3.272-1.889 6.947-1.674 9.827-.052z" fill="#dea861"/><g><path d="m251.009 55.852.005-.011-19.254-10.797-.002.004c-9.825-6.165-22.845-5.86-37.13 2.388-30.598 17.666-55.403 65.06-55.403 105.858 0 21.551 6.925 36.942 17.965 44.072l-.002.004.045.026c.801.515 1.627.982 2.471 1.41l17.798 9.955.005-.011c9.895 6.579 23.16 6.453 37.75-1.971 30.598-17.666 55.403-65.06 55.403-105.858 0-22.627-7.636-38.455-19.651-45.069z" fill="url(#SVGID_6_)"/><ellipse cx="215.257" cy="132.907" fill="#ffc538" rx="85.054" ry="48.119" transform="matrix(.392 -.92 .92 .392 8.678 278.937)"/><path d="m173.259 157.155c0 30.927 18.804 45.142 41.999 31.75s41.999-49.319 41.999-80.246-18.803-45.142-41.999-31.75c-23.196 13.391-41.999 49.319-41.999 80.246z" fill="url(#SVGID_7_)"/><path d="m236.678 72.375c6.408 6.131 10.296 16.715 10.296 30.761 0 30.927-18.804 66.854-41.999 80.246-7.826 4.518-15.148 5.883-21.421 4.534 7.7 7.367 19.043 8.298 31.703.989 23.195-13.392 41.999-49.319 41.999-80.246 0-20.492-8.26-33.636-20.578-36.284z" fill="url(#SVGID_8_)"/></g></g></svg>